<?xml version="1.0" encoding="UTF-8"?>
<svg xmlns="http://www.w3.org/2000/svg" xmlns:xlink="http://www.w3.org/1999/xlink" width="42" height="42"
     viewBox="0 0 16 16" version="1.1">
    <g id="surface1">
        <path style=" stroke:none;fill-rule:nonzero;fill:rgb(33.333333%,37.647059%,50.196078%);fill-opacity:1;"
              d="M 13.035156 4.367188 L 2.828125 2.933594 L 2.960938 2.007812 C 3.011719 1.628906 3.363281 1.363281 3.742188 1.417969 L 12.574219 2.660156 C 12.953125 2.710938 13.21875 3.0625 13.164062 3.441406 Z M 13.035156 4.367188 "/>
        <path style="fill-rule:nonzero;fill:rgb(100%,100%,100%);fill-opacity:1;stroke-width:2;stroke-linecap:round;stroke-linejoin:miter;stroke:rgb(45.098039%,51.372549%,74.901961%);stroke-opacity:1;stroke-miterlimit:10;"
              d="M 24.141602 6.683594 L 24.703369 2.722412 C 24.847412 1.627686 25.870117 0.864258 26.950439 1.022705 L 34.872803 2.131836 C 35.967529 2.290283 36.730957 3.298584 36.586914 4.393311 L 36.025146 8.354492 Z M 24.141602 6.683594 "
              transform="matrix(0.271186,0,0,0.271186,0,0)"/>
        <path style=" stroke:none;fill-rule:nonzero;fill:rgb(92.156863%,72.941176%,8.627451%);fill-opacity:1;"
              d="M 3.417969 5.421875 L 6.296875 5.421875 L 6.390625 5.332031 L 4.855469 3.796875 L 3.390625 5.261719 C 3.355469 5.300781 3.355469 5.363281 3.390625 5.398438 Z M 3.417969 5.421875 "/>
        <path style=" stroke:none;fill-rule:nonzero;fill:rgb(86.666667%,20.784314%,18.039216%);fill-opacity:1;"
              d="M 6.664062 4.609375 L 8.832031 4.609375 L 8.832031 5.421875 L 6.664062 5.421875 Z M 6.664062 4.609375 "/>
        <path style=" stroke:none;fill-rule:nonzero;fill:rgb(41.176471%,30.980392%,52.941176%);fill-opacity:1;"
              d="M 9.644531 4.609375 L 11 4.609375 L 11 5.421875 L 9.644531 5.421875 Z M 9.644531 4.609375 "/>
        <path style=" stroke:none;fill-rule:nonzero;fill:rgb(33.333333%,37.647059%,50.196078%);fill-opacity:1;"
              d="M 11.617188 16 L 3.878906 16 C 3.46875 16 3.136719 15.667969 3.136719 15.261719 L 3.136719 5.421875 L 12.359375 5.421875 L 12.359375 15.261719 C 12.355469 15.667969 12.027344 16 11.617188 16 Z M 11.617188 16 "/>
        <path style=" stroke:none;fill-rule:nonzero;fill:rgb(45.098039%,51.372549%,74.901961%);fill-opacity:1;"
              d="M 4.765625 7.59375 C 4.765625 7.742188 4.640625 7.863281 4.492188 7.863281 C 4.34375 7.863281 4.222656 7.742188 4.222656 7.59375 C 4.222656 7.445312 4.34375 7.320312 4.492188 7.320312 C 4.640625 7.320312 4.765625 7.445312 4.765625 7.59375 Z M 4.765625 7.59375 "/>
        <path style=" stroke:none;fill-rule:nonzero;fill:rgb(45.098039%,51.372549%,74.901961%);fill-opacity:1;"
              d="M 4.765625 9.21875 C 4.765625 9.371094 4.640625 9.492188 4.492188 9.492188 C 4.34375 9.492188 4.222656 9.371094 4.222656 9.21875 C 4.222656 9.070312 4.34375 8.949219 4.492188 8.949219 C 4.640625 8.949219 4.765625 9.070312 4.765625 9.21875 Z M 4.765625 9.21875 "/>
        <path style=" stroke:none;fill-rule:nonzero;fill:rgb(45.098039%,51.372549%,74.901961%);fill-opacity:1;"
              d="M 5.578125 6.78125 C 5.578125 6.929688 5.457031 7.050781 5.304688 7.050781 C 5.15625 7.050781 5.035156 6.929688 5.035156 6.78125 C 5.035156 6.628906 5.15625 6.507812 5.304688 6.507812 C 5.457031 6.507812 5.578125 6.628906 5.578125 6.78125 Z M 5.578125 6.78125 "/>
        <path style=" stroke:none;fill-rule:nonzero;fill:rgb(45.098039%,51.372549%,74.901961%);fill-opacity:1;"
              d="M 7.203125 6.78125 C 7.203125 6.929688 7.082031 7.050781 6.933594 7.050781 C 6.785156 7.050781 6.664062 6.929688 6.664062 6.78125 C 6.664062 6.628906 6.785156 6.507812 6.933594 6.507812 C 7.082031 6.507812 7.203125 6.628906 7.203125 6.78125 Z M 7.203125 6.78125 "/>
        <path style=" stroke:none;fill-rule:nonzero;fill:rgb(45.098039%,51.372549%,74.901961%);fill-opacity:1;"
              d="M 5.578125 8.40625 C 5.578125 8.554688 5.457031 8.679688 5.304688 8.679688 C 5.15625 8.679688 5.035156 8.554688 5.035156 8.40625 C 5.035156 8.257812 5.15625 8.136719 5.304688 8.136719 C 5.457031 8.136719 5.578125 8.257812 5.578125 8.40625 Z M 5.578125 8.40625 "/>
        <path style=" stroke:none;fill-rule:nonzero;fill:rgb(45.098039%,51.372549%,74.901961%);fill-opacity:1;"
              d="M 7.203125 8.40625 C 7.203125 8.554688 7.082031 8.679688 6.933594 8.679688 C 6.785156 8.679688 6.664062 8.554688 6.664062 8.40625 C 6.664062 8.257812 6.785156 8.136719 6.933594 8.136719 C 7.082031 8.136719 7.203125 8.257812 7.203125 8.40625 Z M 7.203125 8.40625 "/>
        <path style=" stroke:none;fill-rule:nonzero;fill:rgb(45.098039%,51.372549%,74.901961%);fill-opacity:1;"
              d="M 6.390625 7.59375 C 6.390625 7.742188 6.269531 7.863281 6.121094 7.863281 C 5.96875 7.863281 5.847656 7.742188 5.847656 7.59375 C 5.847656 7.445312 5.96875 7.320312 6.121094 7.320312 C 6.269531 7.320312 6.390625 7.445312 6.390625 7.59375 Z M 6.390625 7.59375 "/>
        <path style=" stroke:none;fill-rule:nonzero;fill:rgb(45.098039%,51.372549%,74.901961%);fill-opacity:1;"
              d="M 8.019531 7.59375 C 8.019531 7.742188 7.898438 7.863281 7.746094 7.863281 C 7.597656 7.863281 7.476562 7.742188 7.476562 7.59375 C 7.476562 7.445312 7.597656 7.320312 7.746094 7.320312 C 7.898438 7.320312 8.019531 7.445312 8.019531 7.59375 Z M 8.019531 7.59375 "/>
        <path style=" stroke:none;fill-rule:nonzero;fill:rgb(45.098039%,51.372549%,74.901961%);fill-opacity:1;"
              d="M 6.390625 9.21875 C 6.390625 9.371094 6.269531 9.492188 6.121094 9.492188 C 5.96875 9.492188 5.847656 9.371094 5.847656 9.21875 C 5.847656 9.070312 5.96875 8.949219 6.121094 8.949219 C 6.269531 8.949219 6.390625 9.070312 6.390625 9.21875 Z M 6.390625 9.21875 "/>
        <path style=" stroke:none;fill-rule:nonzero;fill:rgb(45.098039%,51.372549%,74.901961%);fill-opacity:1;"
              d="M 8.019531 9.21875 C 8.019531 9.371094 7.898438 9.492188 7.746094 9.492188 C 7.597656 9.492188 7.476562 9.371094 7.476562 9.21875 C 7.476562 9.070312 7.597656 8.949219 7.746094 8.949219 C 7.898438 8.949219 8.019531 9.070312 8.019531 9.21875 Z M 8.019531 9.21875 "/>
        <path style=" stroke:none;fill-rule:nonzero;fill:rgb(45.098039%,51.372549%,74.901961%);fill-opacity:1;"
              d="M 8.832031 6.78125 C 8.832031 6.929688 8.710938 7.050781 8.558594 7.050781 C 8.410156 7.050781 8.289062 6.929688 8.289062 6.78125 C 8.289062 6.628906 8.410156 6.507812 8.558594 6.507812 C 8.710938 6.507812 8.832031 6.628906 8.832031 6.78125 Z M 8.832031 6.78125 "/>
        <path style=" stroke:none;fill-rule:nonzero;fill:rgb(45.098039%,51.372549%,74.901961%);fill-opacity:1;"
              d="M 10.457031 6.78125 C 10.457031 6.929688 10.335938 7.050781 10.1875 7.050781 C 10.039062 7.050781 9.917969 6.929688 9.917969 6.78125 C 9.917969 6.628906 10.039062 6.507812 10.1875 6.507812 C 10.335938 6.507812 10.457031 6.628906 10.457031 6.78125 Z M 10.457031 6.78125 "/>
        <path style=" stroke:none;fill-rule:nonzero;fill:rgb(45.098039%,51.372549%,74.901961%);fill-opacity:1;"
              d="M 8.832031 8.40625 C 8.832031 8.554688 8.710938 8.679688 8.558594 8.679688 C 8.410156 8.679688 8.289062 8.554688 8.289062 8.40625 C 8.289062 8.257812 8.410156 8.136719 8.558594 8.136719 C 8.710938 8.136719 8.832031 8.257812 8.832031 8.40625 Z M 8.832031 8.40625 "/>
        <path style=" stroke:none;fill-rule:nonzero;fill:rgb(45.098039%,51.372549%,74.901961%);fill-opacity:1;"
              d="M 10.457031 8.40625 C 10.457031 8.554688 10.335938 8.679688 10.1875 8.679688 C 10.039062 8.679688 9.917969 8.554688 9.917969 8.40625 C 9.917969 8.257812 10.039062 8.136719 10.1875 8.136719 C 10.335938 8.136719 10.457031 8.257812 10.457031 8.40625 Z M 10.457031 8.40625 "/>
        <path style=" stroke:none;fill-rule:nonzero;fill:rgb(45.098039%,51.372549%,74.901961%);fill-opacity:1;"
              d="M 9.644531 7.59375 C 9.644531 7.742188 9.523438 7.863281 9.375 7.863281 C 9.222656 7.863281 9.101562 7.742188 9.101562 7.59375 C 9.101562 7.445312 9.222656 7.320312 9.375 7.320312 C 9.523438 7.320312 9.644531 7.445312 9.644531 7.59375 Z M 9.644531 7.59375 "/>
        <path style=" stroke:none;fill-rule:nonzero;fill:rgb(45.098039%,51.372549%,74.901961%);fill-opacity:1;"
              d="M 11.273438 7.59375 C 11.273438 7.742188 11.152344 7.863281 11 7.863281 C 10.851562 7.863281 10.730469 7.742188 10.730469 7.59375 C 10.730469 7.445312 10.851562 7.320312 11 7.320312 C 11.152344 7.320312 11.273438 7.445312 11.273438 7.59375 Z M 11.273438 7.59375 "/>
        <path style=" stroke:none;fill-rule:nonzero;fill:rgb(45.098039%,51.372549%,74.901961%);fill-opacity:1;"
              d="M 9.644531 9.21875 C 9.644531 9.371094 9.523438 9.492188 9.375 9.492188 C 9.222656 9.492188 9.101562 9.371094 9.101562 9.21875 C 9.101562 9.070312 9.222656 8.949219 9.375 8.949219 C 9.523438 8.949219 9.644531 9.070312 9.644531 9.21875 Z M 9.644531 9.21875 "/>
        <path style=" stroke:none;fill-rule:nonzero;fill:rgb(45.098039%,51.372549%,74.901961%);fill-opacity:1;"
              d="M 11.273438 9.21875 C 11.273438 9.371094 11.152344 9.492188 11 9.492188 C 10.851562 9.492188 10.730469 9.371094 10.730469 9.21875 C 10.730469 9.070312 10.851562 8.949219 11 8.949219 C 11.152344 8.949219 11.273438 9.070312 11.273438 9.21875 Z M 11.273438 9.21875 "/>
        <path style=" stroke:none;fill-rule:nonzero;fill:rgb(45.098039%,51.372549%,74.901961%);fill-opacity:1;"
              d="M 4.765625 10.847656 C 4.765625 10.996094 4.640625 11.117188 4.492188 11.117188 C 4.34375 11.117188 4.222656 10.996094 4.222656 10.847656 C 4.222656 10.699219 4.34375 10.578125 4.492188 10.578125 C 4.640625 10.578125 4.765625 10.699219 4.765625 10.847656 Z M 4.765625 10.847656 "/>
        <path style=" stroke:none;fill-rule:nonzero;fill:rgb(45.098039%,51.372549%,74.901961%);fill-opacity:1;"
              d="M 4.765625 12.472656 C 4.765625 12.625 4.640625 12.746094 4.492188 12.746094 C 4.34375 12.746094 4.222656 12.625 4.222656 12.472656 C 4.222656 12.324219 4.34375 12.203125 4.492188 12.203125 C 4.640625 12.203125 4.765625 12.324219 4.765625 12.472656 Z M 4.765625 12.472656 "/>
        <path style=" stroke:none;fill-rule:nonzero;fill:rgb(45.098039%,51.372549%,74.901961%);fill-opacity:1;"
              d="M 5.578125 10.035156 C 5.578125 10.183594 5.457031 10.304688 5.304688 10.304688 C 5.15625 10.304688 5.035156 10.183594 5.035156 10.035156 C 5.035156 9.882812 5.15625 9.761719 5.304688 9.761719 C 5.457031 9.761719 5.578125 9.882812 5.578125 10.035156 Z M 5.578125 10.035156 "/>
        <path style=" stroke:none;fill-rule:nonzero;fill:rgb(45.098039%,51.372549%,74.901961%);fill-opacity:1;"
              d="M 7.203125 10.035156 C 7.203125 10.183594 7.082031 10.304688 6.933594 10.304688 C 6.785156 10.304688 6.664062 10.183594 6.664062 10.035156 C 6.664062 9.882812 6.785156 9.761719 6.933594 9.761719 C 7.082031 9.761719 7.203125 9.882812 7.203125 10.035156 Z M 7.203125 10.035156 "/>
        <path style=" stroke:none;fill-rule:nonzero;fill:rgb(45.098039%,51.372549%,74.901961%);fill-opacity:1;"
              d="M 5.578125 11.660156 C 5.578125 11.8125 5.457031 11.933594 5.304688 11.933594 C 5.15625 11.933594 5.035156 11.8125 5.035156 11.660156 C 5.035156 11.511719 5.15625 11.390625 5.304688 11.390625 C 5.457031 11.390625 5.578125 11.511719 5.578125 11.660156 Z M 5.578125 11.660156 "/>
        <path style=" stroke:none;fill-rule:nonzero;fill:rgb(45.098039%,51.372549%,74.901961%);fill-opacity:1;"
              d="M 7.203125 11.660156 C 7.203125 11.8125 7.082031 11.933594 6.933594 11.933594 C 6.785156 11.933594 6.664062 11.8125 6.664062 11.660156 C 6.664062 11.511719 6.785156 11.390625 6.933594 11.390625 C 7.082031 11.390625 7.203125 11.511719 7.203125 11.660156 Z M 7.203125 11.660156 "/>
        <path style=" stroke:none;fill-rule:nonzero;fill:rgb(45.098039%,51.372549%,74.901961%);fill-opacity:1;"
              d="M 6.390625 10.847656 C 6.390625 10.996094 6.269531 11.117188 6.121094 11.117188 C 5.96875 11.117188 5.847656 10.996094 5.847656 10.847656 C 5.847656 10.699219 5.96875 10.578125 6.121094 10.578125 C 6.269531 10.578125 6.390625 10.699219 6.390625 10.847656 Z M 6.390625 10.847656 "/>
        <path style=" stroke:none;fill-rule:nonzero;fill:rgb(45.098039%,51.372549%,74.901961%);fill-opacity:1;"
              d="M 8.019531 10.847656 C 8.019531 10.996094 7.898438 11.117188 7.746094 11.117188 C 7.597656 11.117188 7.476562 10.996094 7.476562 10.847656 C 7.476562 10.699219 7.597656 10.578125 7.746094 10.578125 C 7.898438 10.578125 8.019531 10.699219 8.019531 10.847656 Z M 8.019531 10.847656 "/>
        <path style=" stroke:none;fill-rule:nonzero;fill:rgb(45.098039%,51.372549%,74.901961%);fill-opacity:1;"
              d="M 6.390625 12.472656 C 6.390625 12.625 6.269531 12.746094 6.121094 12.746094 C 5.96875 12.746094 5.847656 12.625 5.847656 12.472656 C 5.847656 12.324219 5.96875 12.203125 6.121094 12.203125 C 6.269531 12.203125 6.390625 12.324219 6.390625 12.472656 Z M 6.390625 12.472656 "/>
        <path style=" stroke:none;fill-rule:nonzero;fill:rgb(45.098039%,51.372549%,74.901961%);fill-opacity:1;"
              d="M 8.019531 12.472656 C 8.019531 12.625 7.898438 12.746094 7.746094 12.746094 C 7.597656 12.746094 7.476562 12.625 7.476562 12.472656 C 7.476562 12.324219 7.597656 12.203125 7.746094 12.203125 C 7.898438 12.203125 8.019531 12.324219 8.019531 12.472656 Z M 8.019531 12.472656 "/>
        <path style=" stroke:none;fill-rule:nonzero;fill:rgb(45.098039%,51.372549%,74.901961%);fill-opacity:1;"
              d="M 8.832031 10.035156 C 8.832031 10.183594 8.710938 10.304688 8.558594 10.304688 C 8.410156 10.304688 8.289062 10.183594 8.289062 10.035156 C 8.289062 9.882812 8.410156 9.761719 8.558594 9.761719 C 8.710938 9.761719 8.832031 9.882812 8.832031 10.035156 Z M 8.832031 10.035156 "/>
        <path style=" stroke:none;fill-rule:nonzero;fill:rgb(45.098039%,51.372549%,74.901961%);fill-opacity:1;"
              d="M 10.457031 10.035156 C 10.457031 10.183594 10.335938 10.304688 10.1875 10.304688 C 10.039062 10.304688 9.917969 10.183594 9.917969 10.035156 C 9.917969 9.882812 10.039062 9.761719 10.1875 9.761719 C 10.335938 9.761719 10.457031 9.882812 10.457031 10.035156 Z M 10.457031 10.035156 "/>
        <path style=" stroke:none;fill-rule:nonzero;fill:rgb(45.098039%,51.372549%,74.901961%);fill-opacity:1;"
              d="M 8.832031 11.660156 C 8.832031 11.8125 8.710938 11.933594 8.558594 11.933594 C 8.410156 11.933594 8.289062 11.8125 8.289062 11.660156 C 8.289062 11.511719 8.410156 11.390625 8.558594 11.390625 C 8.710938 11.390625 8.832031 11.511719 8.832031 11.660156 Z M 8.832031 11.660156 "/>
        <path style=" stroke:none;fill-rule:nonzero;fill:rgb(45.098039%,51.372549%,74.901961%);fill-opacity:1;"
              d="M 10.457031 11.660156 C 10.457031 11.8125 10.335938 11.933594 10.1875 11.933594 C 10.039062 11.933594 9.917969 11.8125 9.917969 11.660156 C 9.917969 11.511719 10.039062 11.390625 10.1875 11.390625 C 10.335938 11.390625 10.457031 11.511719 10.457031 11.660156 Z M 10.457031 11.660156 "/>
        <path style=" stroke:none;fill-rule:nonzero;fill:rgb(45.098039%,51.372549%,74.901961%);fill-opacity:1;"
              d="M 9.644531 10.847656 C 9.644531 10.996094 9.523438 11.117188 9.375 11.117188 C 9.222656 11.117188 9.101562 10.996094 9.101562 10.847656 C 9.101562 10.699219 9.222656 10.578125 9.375 10.578125 C 9.523438 10.578125 9.644531 10.699219 9.644531 10.847656 Z M 9.644531 10.847656 "/>
        <path style=" stroke:none;fill-rule:nonzero;fill:rgb(45.098039%,51.372549%,74.901961%);fill-opacity:1;"
              d="M 11.273438 10.847656 C 11.273438 10.996094 11.152344 11.117188 11 11.117188 C 10.851562 11.117188 10.730469 10.996094 10.730469 10.847656 C 10.730469 10.699219 10.851562 10.578125 11 10.578125 C 11.152344 10.578125 11.273438 10.699219 11.273438 10.847656 Z M 11.273438 10.847656 "/>
        <path style=" stroke:none;fill-rule:nonzero;fill:rgb(45.098039%,51.372549%,74.901961%);fill-opacity:1;"
              d="M 9.644531 12.472656 C 9.644531 12.625 9.523438 12.746094 9.375 12.746094 C 9.222656 12.746094 9.101562 12.625 9.101562 12.472656 C 9.101562 12.324219 9.222656 12.203125 9.375 12.203125 C 9.523438 12.203125 9.644531 12.324219 9.644531 12.472656 Z M 9.644531 12.472656 "/>
        <path style=" stroke:none;fill-rule:nonzero;fill:rgb(45.098039%,51.372549%,74.901961%);fill-opacity:1;"
              d="M 11.273438 12.472656 C 11.273438 12.625 11.152344 12.746094 11 12.746094 C 10.851562 12.746094 10.730469 12.625 10.730469 12.472656 C 10.730469 12.324219 10.851562 12.203125 11 12.203125 C 11.152344 12.203125 11.273438 12.324219 11.273438 12.472656 Z M 11.273438 12.472656 "/>
        <path style=" stroke:none;fill-rule:nonzero;fill:rgb(45.098039%,51.372549%,74.901961%);fill-opacity:1;"
              d="M 4.765625 14.101562 C 4.765625 14.25 4.640625 14.371094 4.492188 14.371094 C 4.34375 14.371094 4.222656 14.25 4.222656 14.101562 C 4.222656 13.953125 4.34375 13.832031 4.492188 13.832031 C 4.640625 13.832031 4.765625 13.953125 4.765625 14.101562 Z M 4.765625 14.101562 "/>
        <path style=" stroke:none;fill-rule:nonzero;fill:rgb(45.098039%,51.372549%,74.901961%);fill-opacity:1;"
              d="M 5.578125 13.289062 C 5.578125 13.4375 5.457031 13.558594 5.304688 13.558594 C 5.15625 13.558594 5.035156 13.4375 5.035156 13.289062 C 5.035156 13.136719 5.15625 13.015625 5.304688 13.015625 C 5.457031 13.015625 5.578125 13.136719 5.578125 13.289062 Z M 5.578125 13.289062 "/>
        <path style=" stroke:none;fill-rule:nonzero;fill:rgb(45.098039%,51.372549%,74.901961%);fill-opacity:1;"
              d="M 7.203125 13.289062 C 7.203125 13.4375 7.082031 13.558594 6.933594 13.558594 C 6.785156 13.558594 6.664062 13.4375 6.664062 13.289062 C 6.664062 13.136719 6.785156 13.015625 6.933594 13.015625 C 7.082031 13.015625 7.203125 13.136719 7.203125 13.289062 Z M 7.203125 13.289062 "/>
        <path style=" stroke:none;fill-rule:nonzero;fill:rgb(45.098039%,51.372549%,74.901961%);fill-opacity:1;"
              d="M 5.578125 14.914062 C 5.578125 15.066406 5.457031 15.1875 5.304688 15.1875 C 5.15625 15.1875 5.035156 15.066406 5.035156 14.914062 C 5.035156 14.765625 5.15625 14.644531 5.304688 14.644531 C 5.457031 14.644531 5.578125 14.765625 5.578125 14.914062 Z M 5.578125 14.914062 "/>
        <path style=" stroke:none;fill-rule:nonzero;fill:rgb(45.098039%,51.372549%,74.901961%);fill-opacity:1;"
              d="M 7.203125 14.914062 C 7.203125 15.066406 7.082031 15.1875 6.933594 15.1875 C 6.785156 15.1875 6.664062 15.066406 6.664062 14.914062 C 6.664062 14.765625 6.785156 14.644531 6.933594 14.644531 C 7.082031 14.644531 7.203125 14.765625 7.203125 14.914062 Z M 7.203125 14.914062 "/>
        <path style=" stroke:none;fill-rule:nonzero;fill:rgb(45.098039%,51.372549%,74.901961%);fill-opacity:1;"
              d="M 6.390625 14.101562 C 6.390625 14.25 6.269531 14.371094 6.121094 14.371094 C 5.96875 14.371094 5.847656 14.25 5.847656 14.101562 C 5.847656 13.953125 5.96875 13.832031 6.121094 13.832031 C 6.269531 13.832031 6.390625 13.953125 6.390625 14.101562 Z M 6.390625 14.101562 "/>
        <path style=" stroke:none;fill-rule:nonzero;fill:rgb(45.098039%,51.372549%,74.901961%);fill-opacity:1;"
              d="M 8.019531 14.101562 C 8.019531 14.25 7.898438 14.371094 7.746094 14.371094 C 7.597656 14.371094 7.476562 14.25 7.476562 14.101562 C 7.476562 13.953125 7.597656 13.832031 7.746094 13.832031 C 7.898438 13.832031 8.019531 13.953125 8.019531 14.101562 Z M 8.019531 14.101562 "/>
        <path style=" stroke:none;fill-rule:nonzero;fill:rgb(45.098039%,51.372549%,74.901961%);fill-opacity:1;"
              d="M 8.832031 13.289062 C 8.832031 13.4375 8.710938 13.558594 8.558594 13.558594 C 8.410156 13.558594 8.289062 13.4375 8.289062 13.289062 C 8.289062 13.136719 8.410156 13.015625 8.558594 13.015625 C 8.710938 13.015625 8.832031 13.136719 8.832031 13.289062 Z M 8.832031 13.289062 "/>
        <path style=" stroke:none;fill-rule:nonzero;fill:rgb(45.098039%,51.372549%,74.901961%);fill-opacity:1;"
              d="M 10.457031 13.289062 C 10.457031 13.4375 10.335938 13.558594 10.1875 13.558594 C 10.039062 13.558594 9.917969 13.4375 9.917969 13.289062 C 9.917969 13.136719 10.039062 13.015625 10.1875 13.015625 C 10.335938 13.015625 10.457031 13.136719 10.457031 13.289062 Z M 10.457031 13.289062 "/>
        <path style=" stroke:none;fill-rule:nonzero;fill:rgb(45.098039%,51.372549%,74.901961%);fill-opacity:1;"
              d="M 8.832031 14.914062 C 8.832031 15.066406 8.710938 15.1875 8.558594 15.1875 C 8.410156 15.1875 8.289062 15.066406 8.289062 14.914062 C 8.289062 14.765625 8.410156 14.644531 8.558594 14.644531 C 8.710938 14.644531 8.832031 14.765625 8.832031 14.914062 Z M 8.832031 14.914062 "/>
        <path style=" stroke:none;fill-rule:nonzero;fill:rgb(45.098039%,51.372549%,74.901961%);fill-opacity:1;"
              d="M 10.457031 14.914062 C 10.457031 15.066406 10.335938 15.1875 10.1875 15.1875 C 10.039062 15.1875 9.917969 15.066406 9.917969 14.914062 C 9.917969 14.765625 10.039062 14.644531 10.1875 14.644531 C 10.335938 14.644531 10.457031 14.765625 10.457031 14.914062 Z M 10.457031 14.914062 "/>
        <path style=" stroke:none;fill-rule:nonzero;fill:rgb(45.098039%,51.372549%,74.901961%);fill-opacity:1;"
              d="M 9.644531 14.101562 C 9.644531 14.25 9.523438 14.371094 9.375 14.371094 C 9.222656 14.371094 9.101562 14.25 9.101562 14.101562 C 9.101562 13.953125 9.222656 13.832031 9.375 13.832031 C 9.523438 13.832031 9.644531 13.953125 9.644531 14.101562 Z M 9.644531 14.101562 "/>
        <path style=" stroke:none;fill-rule:nonzero;fill:rgb(45.098039%,51.372549%,74.901961%);fill-opacity:1;"
              d="M 11.273438 14.101562 C 11.273438 14.25 11.152344 14.371094 11 14.371094 C 10.851562 14.371094 10.730469 14.25 10.730469 14.101562 C 10.730469 13.953125 10.851562 13.832031 11 13.832031 C 11.152344 13.832031 11.273438 13.953125 11.273438 14.101562 Z M 11.273438 14.101562 "/>
        <path style=" stroke:none;fill-rule:nonzero;fill:rgb(33.333333%,37.647059%,50.196078%);fill-opacity:1;"
              d="M 13.035156 4.367188 L 2.828125 2.933594 L 2.960938 2.007812 C 3.011719 1.628906 3.363281 1.363281 3.742188 1.417969 L 12.574219 2.660156 C 12.953125 2.710938 13.21875 3.0625 13.164062 3.441406 Z M 13.035156 4.367188 "/>
        <path style="fill-rule:nonzero;fill:rgb(100%,100%,100%);fill-opacity:1;stroke-width:2;stroke-linecap:round;stroke-linejoin:miter;stroke:rgb(45.098039%,51.372549%,74.901961%);stroke-opacity:1;stroke-miterlimit:10;"
              d="M 24.141602 6.683594 L 24.703369 2.722412 C 24.847412 1.627686 25.870117 0.864258 26.950439 1.022705 L 34.872803 2.131836 C 35.967529 2.290283 36.730957 3.298584 36.586914 4.393311 L 36.025146 8.354492 Z M 24.141602 6.683594 "
              transform="matrix(0.271186,0,0,0.271186,0,0)"/>
        <path style=" stroke:none;fill-rule:nonzero;fill:rgb(92.156863%,72.941176%,8.627451%);fill-opacity:1;"
              d="M 3.417969 5.421875 L 6.296875 5.421875 L 6.390625 5.332031 L 4.855469 3.796875 L 3.390625 5.261719 C 3.355469 5.300781 3.355469 5.363281 3.390625 5.398438 Z M 3.417969 5.421875 "/>
        <path style=" stroke:none;fill-rule:nonzero;fill:rgb(86.666667%,20.784314%,18.039216%);fill-opacity:1;"
              d="M 6.664062 4.609375 L 8.832031 4.609375 L 8.832031 5.421875 L 6.664062 5.421875 Z M 6.664062 4.609375 "/>
        <path style=" stroke:none;fill-rule:nonzero;fill:rgb(41.176471%,30.980392%,52.941176%);fill-opacity:1;"
              d="M 9.644531 4.609375 L 11 4.609375 L 11 5.421875 L 9.644531 5.421875 Z M 9.644531 4.609375 "/>
        <path style=" stroke:none;fill-rule:nonzero;fill:rgb(33.333333%,37.647059%,50.196078%);fill-opacity:1;"
              d="M 11.617188 16 L 3.878906 16 C 3.46875 16 3.136719 15.667969 3.136719 15.261719 L 3.136719 5.421875 L 12.359375 5.421875 L 12.359375 15.261719 C 12.355469 15.667969 12.027344 16 11.617188 16 Z M 11.617188 16 "/>
        <path style=" stroke:none;fill-rule:nonzero;fill:rgb(45.098039%,51.372549%,74.901961%);fill-opacity:1;"
              d="M 4.765625 7.59375 C 4.765625 7.742188 4.640625 7.863281 4.492188 7.863281 C 4.34375 7.863281 4.222656 7.742188 4.222656 7.59375 C 4.222656 7.445312 4.34375 7.320312 4.492188 7.320312 C 4.640625 7.320312 4.765625 7.445312 4.765625 7.59375 Z M 4.765625 7.59375 "/>
        <path style=" stroke:none;fill-rule:nonzero;fill:rgb(45.098039%,51.372549%,74.901961%);fill-opacity:1;"
              d="M 4.765625 9.21875 C 4.765625 9.371094 4.640625 9.492188 4.492188 9.492188 C 4.34375 9.492188 4.222656 9.371094 4.222656 9.21875 C 4.222656 9.070312 4.34375 8.949219 4.492188 8.949219 C 4.640625 8.949219 4.765625 9.070312 4.765625 9.21875 Z M 4.765625 9.21875 "/>
        <path style=" stroke:none;fill-rule:nonzero;fill:rgb(45.098039%,51.372549%,74.901961%);fill-opacity:1;"
              d="M 5.578125 6.78125 C 5.578125 6.929688 5.457031 7.050781 5.304688 7.050781 C 5.15625 7.050781 5.035156 6.929688 5.035156 6.78125 C 5.035156 6.628906 5.15625 6.507812 5.304688 6.507812 C 5.457031 6.507812 5.578125 6.628906 5.578125 6.78125 Z M 5.578125 6.78125 "/>
        <path style=" stroke:none;fill-rule:nonzero;fill:rgb(45.098039%,51.372549%,74.901961%);fill-opacity:1;"
              d="M 7.203125 6.78125 C 7.203125 6.929688 7.082031 7.050781 6.933594 7.050781 C 6.785156 7.050781 6.664062 6.929688 6.664062 6.78125 C 6.664062 6.628906 6.785156 6.507812 6.933594 6.507812 C 7.082031 6.507812 7.203125 6.628906 7.203125 6.78125 Z M 7.203125 6.78125 "/>
        <path style=" stroke:none;fill-rule:nonzero;fill:rgb(45.098039%,51.372549%,74.901961%);fill-opacity:1;"
              d="M 5.578125 8.40625 C 5.578125 8.554688 5.457031 8.679688 5.304688 8.679688 C 5.15625 8.679688 5.035156 8.554688 5.035156 8.40625 C 5.035156 8.257812 5.15625 8.136719 5.304688 8.136719 C 5.457031 8.136719 5.578125 8.257812 5.578125 8.40625 Z M 5.578125 8.40625 "/>
        <path style=" stroke:none;fill-rule:nonzero;fill:rgb(45.098039%,51.372549%,74.901961%);fill-opacity:1;"
              d="M 7.203125 8.40625 C 7.203125 8.554688 7.082031 8.679688 6.933594 8.679688 C 6.785156 8.679688 6.664062 8.554688 6.664062 8.40625 C 6.664062 8.257812 6.785156 8.136719 6.933594 8.136719 C 7.082031 8.136719 7.203125 8.257812 7.203125 8.40625 Z M 7.203125 8.40625 "/>
        <path style=" stroke:none;fill-rule:nonzero;fill:rgb(45.098039%,51.372549%,74.901961%);fill-opacity:1;"
              d="M 6.390625 7.59375 C 6.390625 7.742188 6.269531 7.863281 6.121094 7.863281 C 5.96875 7.863281 5.847656 7.742188 5.847656 7.59375 C 5.847656 7.445312 5.96875 7.320312 6.121094 7.320312 C 6.269531 7.320312 6.390625 7.445312 6.390625 7.59375 Z M 6.390625 7.59375 "/>
        <path style=" stroke:none;fill-rule:nonzero;fill:rgb(45.098039%,51.372549%,74.901961%);fill-opacity:1;"
              d="M 8.019531 7.59375 C 8.019531 7.742188 7.898438 7.863281 7.746094 7.863281 C 7.597656 7.863281 7.476562 7.742188 7.476562 7.59375 C 7.476562 7.445312 7.597656 7.320312 7.746094 7.320312 C 7.898438 7.320312 8.019531 7.445312 8.019531 7.59375 Z M 8.019531 7.59375 "/>
        <path style=" stroke:none;fill-rule:nonzero;fill:rgb(45.098039%,51.372549%,74.901961%);fill-opacity:1;"
              d="M 6.390625 9.21875 C 6.390625 9.371094 6.269531 9.492188 6.121094 9.492188 C 5.96875 9.492188 5.847656 9.371094 5.847656 9.21875 C 5.847656 9.070312 5.96875 8.949219 6.121094 8.949219 C 6.269531 8.949219 6.390625 9.070312 6.390625 9.21875 Z M 6.390625 9.21875 "/>
        <path style=" stroke:none;fill-rule:nonzero;fill:rgb(45.098039%,51.372549%,74.901961%);fill-opacity:1;"
              d="M 8.019531 9.21875 C 8.019531 9.371094 7.898438 9.492188 7.746094 9.492188 C 7.597656 9.492188 7.476562 9.371094 7.476562 9.21875 C 7.476562 9.070312 7.597656 8.949219 7.746094 8.949219 C 7.898438 8.949219 8.019531 9.070312 8.019531 9.21875 Z M 8.019531 9.21875 "/>
        <path style=" stroke:none;fill-rule:nonzero;fill:rgb(45.098039%,51.372549%,74.901961%);fill-opacity:1;"
              d="M 8.832031 6.78125 C 8.832031 6.929688 8.710938 7.050781 8.558594 7.050781 C 8.410156 7.050781 8.289062 6.929688 8.289062 6.78125 C 8.289062 6.628906 8.410156 6.507812 8.558594 6.507812 C 8.710938 6.507812 8.832031 6.628906 8.832031 6.78125 Z M 8.832031 6.78125 "/>
        <path style=" stroke:none;fill-rule:nonzero;fill:rgb(45.098039%,51.372549%,74.901961%);fill-opacity:1;"
              d="M 10.457031 6.78125 C 10.457031 6.929688 10.335938 7.050781 10.1875 7.050781 C 10.039062 7.050781 9.917969 6.929688 9.917969 6.78125 C 9.917969 6.628906 10.039062 6.507812 10.1875 6.507812 C 10.335938 6.507812 10.457031 6.628906 10.457031 6.78125 Z M 10.457031 6.78125 "/>
        <path style=" stroke:none;fill-rule:nonzero;fill:rgb(45.098039%,51.372549%,74.901961%);fill-opacity:1;"
              d="M 8.832031 8.40625 C 8.832031 8.554688 8.710938 8.679688 8.558594 8.679688 C 8.410156 8.679688 8.289062 8.554688 8.289062 8.40625 C 8.289062 8.257812 8.410156 8.136719 8.558594 8.136719 C 8.710938 8.136719 8.832031 8.257812 8.832031 8.40625 Z M 8.832031 8.40625 "/>
        <path style=" stroke:none;fill-rule:nonzero;fill:rgb(45.098039%,51.372549%,74.901961%);fill-opacity:1;"
              d="M 10.457031 8.40625 C 10.457031 8.554688 10.335938 8.679688 10.1875 8.679688 C 10.039062 8.679688 9.917969 8.554688 9.917969 8.40625 C 9.917969 8.257812 10.039062 8.136719 10.1875 8.136719 C 10.335938 8.136719 10.457031 8.257812 10.457031 8.40625 Z M 10.457031 8.40625 "/>
        <path style=" stroke:none;fill-rule:nonzero;fill:rgb(45.098039%,51.372549%,74.901961%);fill-opacity:1;"
              d="M 9.644531 7.59375 C 9.644531 7.742188 9.523438 7.863281 9.375 7.863281 C 9.222656 7.863281 9.101562 7.742188 9.101562 7.59375 C 9.101562 7.445312 9.222656 7.320312 9.375 7.320312 C 9.523438 7.320312 9.644531 7.445312 9.644531 7.59375 Z M 9.644531 7.59375 "/>
        <path style=" stroke:none;fill-rule:nonzero;fill:rgb(45.098039%,51.372549%,74.901961%);fill-opacity:1;"
              d="M 11.273438 7.59375 C 11.273438 7.742188 11.152344 7.863281 11 7.863281 C 10.851562 7.863281 10.730469 7.742188 10.730469 7.59375 C 10.730469 7.445312 10.851562 7.320312 11 7.320312 C 11.152344 7.320312 11.273438 7.445312 11.273438 7.59375 Z M 11.273438 7.59375 "/>
        <path style=" stroke:none;fill-rule:nonzero;fill:rgb(45.098039%,51.372549%,74.901961%);fill-opacity:1;"
              d="M 9.644531 9.21875 C 9.644531 9.371094 9.523438 9.492188 9.375 9.492188 C 9.222656 9.492188 9.101562 9.371094 9.101562 9.21875 C 9.101562 9.070312 9.222656 8.949219 9.375 8.949219 C 9.523438 8.949219 9.644531 9.070312 9.644531 9.21875 Z M 9.644531 9.21875 "/>
        <path style=" stroke:none;fill-rule:nonzero;fill:rgb(45.098039%,51.372549%,74.901961%);fill-opacity:1;"
              d="M 11.273438 9.21875 C 11.273438 9.371094 11.152344 9.492188 11 9.492188 C 10.851562 9.492188 10.730469 9.371094 10.730469 9.21875 C 10.730469 9.070312 10.851562 8.949219 11 8.949219 C 11.152344 8.949219 11.273438 9.070312 11.273438 9.21875 Z M 11.273438 9.21875 "/>
        <path style=" stroke:none;fill-rule:nonzero;fill:rgb(45.098039%,51.372549%,74.901961%);fill-opacity:1;"
              d="M 4.765625 10.847656 C 4.765625 10.996094 4.640625 11.117188 4.492188 11.117188 C 4.34375 11.117188 4.222656 10.996094 4.222656 10.847656 C 4.222656 10.699219 4.34375 10.578125 4.492188 10.578125 C 4.640625 10.578125 4.765625 10.699219 4.765625 10.847656 Z M 4.765625 10.847656 "/>
        <path style=" stroke:none;fill-rule:nonzero;fill:rgb(45.098039%,51.372549%,74.901961%);fill-opacity:1;"
              d="M 4.765625 12.472656 C 4.765625 12.625 4.640625 12.746094 4.492188 12.746094 C 4.34375 12.746094 4.222656 12.625 4.222656 12.472656 C 4.222656 12.324219 4.34375 12.203125 4.492188 12.203125 C 4.640625 12.203125 4.765625 12.324219 4.765625 12.472656 Z M 4.765625 12.472656 "/>
        <path style=" stroke:none;fill-rule:nonzero;fill:rgb(45.098039%,51.372549%,74.901961%);fill-opacity:1;"
              d="M 5.578125 10.035156 C 5.578125 10.183594 5.457031 10.304688 5.304688 10.304688 C 5.15625 10.304688 5.035156 10.183594 5.035156 10.035156 C 5.035156 9.882812 5.15625 9.761719 5.304688 9.761719 C 5.457031 9.761719 5.578125 9.882812 5.578125 10.035156 Z M 5.578125 10.035156 "/>
        <path style=" stroke:none;fill-rule:nonzero;fill:rgb(45.098039%,51.372549%,74.901961%);fill-opacity:1;"
              d="M 7.203125 10.035156 C 7.203125 10.183594 7.082031 10.304688 6.933594 10.304688 C 6.785156 10.304688 6.664062 10.183594 6.664062 10.035156 C 6.664062 9.882812 6.785156 9.761719 6.933594 9.761719 C 7.082031 9.761719 7.203125 9.882812 7.203125 10.035156 Z M 7.203125 10.035156 "/>
        <path style=" stroke:none;fill-rule:nonzero;fill:rgb(45.098039%,51.372549%,74.901961%);fill-opacity:1;"
              d="M 5.578125 11.660156 C 5.578125 11.8125 5.457031 11.933594 5.304688 11.933594 C 5.15625 11.933594 5.035156 11.8125 5.035156 11.660156 C 5.035156 11.511719 5.15625 11.390625 5.304688 11.390625 C 5.457031 11.390625 5.578125 11.511719 5.578125 11.660156 Z M 5.578125 11.660156 "/>
        <path style=" stroke:none;fill-rule:nonzero;fill:rgb(45.098039%,51.372549%,74.901961%);fill-opacity:1;"
              d="M 7.203125 11.660156 C 7.203125 11.8125 7.082031 11.933594 6.933594 11.933594 C 6.785156 11.933594 6.664062 11.8125 6.664062 11.660156 C 6.664062 11.511719 6.785156 11.390625 6.933594 11.390625 C 7.082031 11.390625 7.203125 11.511719 7.203125 11.660156 Z M 7.203125 11.660156 "/>
        <path style=" stroke:none;fill-rule:nonzero;fill:rgb(45.098039%,51.372549%,74.901961%);fill-opacity:1;"
              d="M 6.390625 10.847656 C 6.390625 10.996094 6.269531 11.117188 6.121094 11.117188 C 5.96875 11.117188 5.847656 10.996094 5.847656 10.847656 C 5.847656 10.699219 5.96875 10.578125 6.121094 10.578125 C 6.269531 10.578125 6.390625 10.699219 6.390625 10.847656 Z M 6.390625 10.847656 "/>
        <path style=" stroke:none;fill-rule:nonzero;fill:rgb(45.098039%,51.372549%,74.901961%);fill-opacity:1;"
              d="M 8.019531 10.847656 C 8.019531 10.996094 7.898438 11.117188 7.746094 11.117188 C 7.597656 11.117188 7.476562 10.996094 7.476562 10.847656 C 7.476562 10.699219 7.597656 10.578125 7.746094 10.578125 C 7.898438 10.578125 8.019531 10.699219 8.019531 10.847656 Z M 8.019531 10.847656 "/>
        <path style=" stroke:none;fill-rule:nonzero;fill:rgb(45.098039%,51.372549%,74.901961%);fill-opacity:1;"
              d="M 6.390625 12.472656 C 6.390625 12.625 6.269531 12.746094 6.121094 12.746094 C 5.96875 12.746094 5.847656 12.625 5.847656 12.472656 C 5.847656 12.324219 5.96875 12.203125 6.121094 12.203125 C 6.269531 12.203125 6.390625 12.324219 6.390625 12.472656 Z M 6.390625 12.472656 "/>
        <path style=" stroke:none;fill-rule:nonzero;fill:rgb(45.098039%,51.372549%,74.901961%);fill-opacity:1;"
              d="M 8.019531 12.472656 C 8.019531 12.625 7.898438 12.746094 7.746094 12.746094 C 7.597656 12.746094 7.476562 12.625 7.476562 12.472656 C 7.476562 12.324219 7.597656 12.203125 7.746094 12.203125 C 7.898438 12.203125 8.019531 12.324219 8.019531 12.472656 Z M 8.019531 12.472656 "/>
        <path style=" stroke:none;fill-rule:nonzero;fill:rgb(45.098039%,51.372549%,74.901961%);fill-opacity:1;"
              d="M 8.832031 10.035156 C 8.832031 10.183594 8.710938 10.304688 8.558594 10.304688 C 8.410156 10.304688 8.289062 10.183594 8.289062 10.035156 C 8.289062 9.882812 8.410156 9.761719 8.558594 9.761719 C 8.710938 9.761719 8.832031 9.882812 8.832031 10.035156 Z M 8.832031 10.035156 "/>
        <path style=" stroke:none;fill-rule:nonzero;fill:rgb(45.098039%,51.372549%,74.901961%);fill-opacity:1;"
              d="M 10.457031 10.035156 C 10.457031 10.183594 10.335938 10.304688 10.1875 10.304688 C 10.039062 10.304688 9.917969 10.183594 9.917969 10.035156 C 9.917969 9.882812 10.039062 9.761719 10.1875 9.761719 C 10.335938 9.761719 10.457031 9.882812 10.457031 10.035156 Z M 10.457031 10.035156 "/>
        <path style=" stroke:none;fill-rule:nonzero;fill:rgb(45.098039%,51.372549%,74.901961%);fill-opacity:1;"
              d="M 8.832031 11.660156 C 8.832031 11.8125 8.710938 11.933594 8.558594 11.933594 C 8.410156 11.933594 8.289062 11.8125 8.289062 11.660156 C 8.289062 11.511719 8.410156 11.390625 8.558594 11.390625 C 8.710938 11.390625 8.832031 11.511719 8.832031 11.660156 Z M 8.832031 11.660156 "/>
        <path style=" stroke:none;fill-rule:nonzero;fill:rgb(45.098039%,51.372549%,74.901961%);fill-opacity:1;"
              d="M 10.457031 11.660156 C 10.457031 11.8125 10.335938 11.933594 10.1875 11.933594 C 10.039062 11.933594 9.917969 11.8125 9.917969 11.660156 C 9.917969 11.511719 10.039062 11.390625 10.1875 11.390625 C 10.335938 11.390625 10.457031 11.511719 10.457031 11.660156 Z M 10.457031 11.660156 "/>
        <path style=" stroke:none;fill-rule:nonzero;fill:rgb(45.098039%,51.372549%,74.901961%);fill-opacity:1;"
              d="M 9.644531 10.847656 C 9.644531 10.996094 9.523438 11.117188 9.375 11.117188 C 9.222656 11.117188 9.101562 10.996094 9.101562 10.847656 C 9.101562 10.699219 9.222656 10.578125 9.375 10.578125 C 9.523438 10.578125 9.644531 10.699219 9.644531 10.847656 Z M 9.644531 10.847656 "/>
        <path style=" stroke:none;fill-rule:nonzero;fill:rgb(45.098039%,51.372549%,74.901961%);fill-opacity:1;"
              d="M 11.273438 10.847656 C 11.273438 10.996094 11.152344 11.117188 11 11.117188 C 10.851562 11.117188 10.730469 10.996094 10.730469 10.847656 C 10.730469 10.699219 10.851562 10.578125 11 10.578125 C 11.152344 10.578125 11.273438 10.699219 11.273438 10.847656 Z M 11.273438 10.847656 "/>
        <path style=" stroke:none;fill-rule:nonzero;fill:rgb(45.098039%,51.372549%,74.901961%);fill-opacity:1;"
              d="M 9.644531 12.472656 C 9.644531 12.625 9.523438 12.746094 9.375 12.746094 C 9.222656 12.746094 9.101562 12.625 9.101562 12.472656 C 9.101562 12.324219 9.222656 12.203125 9.375 12.203125 C 9.523438 12.203125 9.644531 12.324219 9.644531 12.472656 Z M 9.644531 12.472656 "/>
        <path style=" stroke:none;fill-rule:nonzero;fill:rgb(45.098039%,51.372549%,74.901961%);fill-opacity:1;"
              d="M 11.273438 12.472656 C 11.273438 12.625 11.152344 12.746094 11 12.746094 C 10.851562 12.746094 10.730469 12.625 10.730469 12.472656 C 10.730469 12.324219 10.851562 12.203125 11 12.203125 C 11.152344 12.203125 11.273438 12.324219 11.273438 12.472656 Z M 11.273438 12.472656 "/>
        <path style=" stroke:none;fill-rule:nonzero;fill:rgb(45.098039%,51.372549%,74.901961%);fill-opacity:1;"
              d="M 4.765625 14.101562 C 4.765625 14.25 4.640625 14.371094 4.492188 14.371094 C 4.34375 14.371094 4.222656 14.25 4.222656 14.101562 C 4.222656 13.953125 4.34375 13.832031 4.492188 13.832031 C 4.640625 13.832031 4.765625 13.953125 4.765625 14.101562 Z M 4.765625 14.101562 "/>
        <path style=" stroke:none;fill-rule:nonzero;fill:rgb(45.098039%,51.372549%,74.901961%);fill-opacity:1;"
              d="M 5.578125 13.289062 C 5.578125 13.4375 5.457031 13.558594 5.304688 13.558594 C 5.15625 13.558594 5.035156 13.4375 5.035156 13.289062 C 5.035156 13.136719 5.15625 13.015625 5.304688 13.015625 C 5.457031 13.015625 5.578125 13.136719 5.578125 13.289062 Z M 5.578125 13.289062 "/>
        <path style=" stroke:none;fill-rule:nonzero;fill:rgb(45.098039%,51.372549%,74.901961%);fill-opacity:1;"
              d="M 7.203125 13.289062 C 7.203125 13.4375 7.082031 13.558594 6.933594 13.558594 C 6.785156 13.558594 6.664062 13.4375 6.664062 13.289062 C 6.664062 13.136719 6.785156 13.015625 6.933594 13.015625 C 7.082031 13.015625 7.203125 13.136719 7.203125 13.289062 Z M 7.203125 13.289062 "/>
        <path style=" stroke:none;fill-rule:nonzero;fill:rgb(45.098039%,51.372549%,74.901961%);fill-opacity:1;"
              d="M 5.578125 14.914062 C 5.578125 15.066406 5.457031 15.1875 5.304688 15.1875 C 5.15625 15.1875 5.035156 15.066406 5.035156 14.914062 C 5.035156 14.765625 5.15625 14.644531 5.304688 14.644531 C 5.457031 14.644531 5.578125 14.765625 5.578125 14.914062 Z M 5.578125 14.914062 "/>
        <path style=" stroke:none;fill-rule:nonzero;fill:rgb(45.098039%,51.372549%,74.901961%);fill-opacity:1;"
              d="M 7.203125 14.914062 C 7.203125 15.066406 7.082031 15.1875 6.933594 15.1875 C 6.785156 15.1875 6.664062 15.066406 6.664062 14.914062 C 6.664062 14.765625 6.785156 14.644531 6.933594 14.644531 C 7.082031 14.644531 7.203125 14.765625 7.203125 14.914062 Z M 7.203125 14.914062 "/>
        <path style=" stroke:none;fill-rule:nonzero;fill:rgb(45.098039%,51.372549%,74.901961%);fill-opacity:1;"
              d="M 6.390625 14.101562 C 6.390625 14.25 6.269531 14.371094 6.121094 14.371094 C 5.96875 14.371094 5.847656 14.25 5.847656 14.101562 C 5.847656 13.953125 5.96875 13.832031 6.121094 13.832031 C 6.269531 13.832031 6.390625 13.953125 6.390625 14.101562 Z M 6.390625 14.101562 "/>
        <path style=" stroke:none;fill-rule:nonzero;fill:rgb(45.098039%,51.372549%,74.901961%);fill-opacity:1;"
              d="M 8.019531 14.101562 C 8.019531 14.25 7.898438 14.371094 7.746094 14.371094 C 7.597656 14.371094 7.476562 14.25 7.476562 14.101562 C 7.476562 13.953125 7.597656 13.832031 7.746094 13.832031 C 7.898438 13.832031 8.019531 13.953125 8.019531 14.101562 Z M 8.019531 14.101562 "/>
        <path style=" stroke:none;fill-rule:nonzero;fill:rgb(45.098039%,51.372549%,74.901961%);fill-opacity:1;"
              d="M 8.832031 13.289062 C 8.832031 13.4375 8.710938 13.558594 8.558594 13.558594 C 8.410156 13.558594 8.289062 13.4375 8.289062 13.289062 C 8.289062 13.136719 8.410156 13.015625 8.558594 13.015625 C 8.710938 13.015625 8.832031 13.136719 8.832031 13.289062 Z M 8.832031 13.289062 "/>
        <path style=" stroke:none;fill-rule:nonzero;fill:rgb(45.098039%,51.372549%,74.901961%);fill-opacity:1;"
              d="M 10.457031 13.289062 C 10.457031 13.4375 10.335938 13.558594 10.1875 13.558594 C 10.039062 13.558594 9.917969 13.4375 9.917969 13.289062 C 9.917969 13.136719 10.039062 13.015625 10.1875 13.015625 C 10.335938 13.015625 10.457031 13.136719 10.457031 13.289062 Z M 10.457031 13.289062 "/>
        <path style=" stroke:none;fill-rule:nonzero;fill:rgb(45.098039%,51.372549%,74.901961%);fill-opacity:1;"
              d="M 8.832031 14.914062 C 8.832031 15.066406 8.710938 15.1875 8.558594 15.1875 C 8.410156 15.1875 8.289062 15.066406 8.289062 14.914062 C 8.289062 14.765625 8.410156 14.644531 8.558594 14.644531 C 8.710938 14.644531 8.832031 14.765625 8.832031 14.914062 Z M 8.832031 14.914062 "/>
        <path style=" stroke:none;fill-rule:nonzero;fill:rgb(45.098039%,51.372549%,74.901961%);fill-opacity:1;"
              d="M 10.457031 14.914062 C 10.457031 15.066406 10.335938 15.1875 10.1875 15.1875 C 10.039062 15.1875 9.917969 15.066406 9.917969 14.914062 C 9.917969 14.765625 10.039062 14.644531 10.1875 14.644531 C 10.335938 14.644531 10.457031 14.765625 10.457031 14.914062 Z M 10.457031 14.914062 "/>
        <path style=" stroke:none;fill-rule:nonzero;fill:rgb(45.098039%,51.372549%,74.901961%);fill-opacity:1;"
              d="M 9.644531 14.101562 C 9.644531 14.25 9.523438 14.371094 9.375 14.371094 C 9.222656 14.371094 9.101562 14.25 9.101562 14.101562 C 9.101562 13.953125 9.222656 13.832031 9.375 13.832031 C 9.523438 13.832031 9.644531 13.953125 9.644531 14.101562 Z M 9.644531 14.101562 "/>
        <path style=" stroke:none;fill-rule:nonzero;fill:rgb(45.098039%,51.372549%,74.901961%);fill-opacity:1;"
              d="M 11.273438 14.101562 C 11.273438 14.25 11.152344 14.371094 11 14.371094 C 10.851562 14.371094 10.730469 14.25 10.730469 14.101562 C 10.730469 13.953125 10.851562 13.832031 11 13.832031 C 11.152344 13.832031 11.273438 13.953125 11.273438 14.101562 Z M 11.273438 14.101562 "/>
    </g>
</svg>
