<svg class="icon" viewBox="0 0 1024 1024" version="1.1" xmlns="http://www.w3.org/2000/svg" width="25"
     height="25">
    <path d="M822.857143 562.285714c74.916571 29.257143 128 102.144 128 187.428572 0 111.085714-90.057143 201.142857-201.142857 201.142857-53.449143 0-102.034286-20.845714-138.057143-54.857143H256a54.857143 54.857143 0 0 1-54.857143-54.857143V128a54.857143 54.857143 0 0 1 54.857143-54.857143h512a54.857143 54.857143 0 0 1 54.857143 54.857143v434.285714z m-36.571429-10.404571V128a18.285714 18.285714 0 0 0-18.285714-18.285714H256a18.285714 18.285714 0 0 0-18.285714 18.285714v713.142857a18.285714 18.285714 0 0 0 18.285714 18.285714h325.101714A200.210286 200.210286 0 0 1 548.571429 749.714286c0-6.162286 0.274286-12.251429 0.822857-18.285715H493.714286a18.285714 18.285714 0 0 1 0-36.571428h62.427428c23.881143-84.425143 101.485714-146.285714 193.572572-146.285714 12.489143 0 24.704 1.133714 36.571428 3.309714zM406.308571 208a18.285714 18.285714 0 1 1 28.525715 22.857143l-73.142857 91.428571a18.285714 18.285714 0 0 1-27.190858 1.499429l-36.571428-36.571429a18.285714 18.285714 0 0 1 25.856-25.856l22.125714 22.125715 60.379429-75.483429z m0 219.428571a18.285714 18.285714 0 1 1 28.525715 22.857143l-73.142857 91.428572a18.285714 18.285714 0 0 1-27.190858 1.499428l-36.571428-36.571428a18.285714 18.285714 0 0 1 25.856-25.856l22.125714 22.125714 60.379429-75.483429z m0.036572 219.373715a18.285714 18.285714 0 0 1 28.452571 22.966857l-74.075428 91.702857a18.285714 18.285714 0 0 1-27.373715 1.225143l-35.638857-36.845714a18.285714 18.285714 0 1 1 26.294857-25.417143l21.248 21.961143 61.092572-75.593143zM493.714286 256h219.428571a18.285714 18.285714 0 0 1 0 36.571429H493.714286a18.285714 18.285714 0 0 1 0-36.571429z m0 219.428571h219.428571a18.285714 18.285714 0 0 1 0 36.571429H493.714286a18.285714 18.285714 0 0 1 0-36.571429z m256 438.857143a164.571429 164.571429 0 1 0 0-329.142857 164.571429 164.571429 0 0 0 0 329.142857z m76.8-248.685714a18.285714 18.285714 0 0 1 29.257143 21.942857l-109.714286 146.285714a18.285714 18.285714 0 0 1-27.556572 1.956572l-54.857142-54.857143a18.285714 18.285714 0 0 1 25.856-25.856l39.954285 39.954286L826.514286 665.6z"
          fill="#005DBA"></path>
    <path d="M786.285714 551.881143V128a18.285714 18.285714 0 0 0-18.285714-18.285714H256a18.285714 18.285714 0 0 0-18.285714 18.285714v713.142857a18.285714 18.285714 0 0 0 18.285714 18.285714h325.101714A200.210286 200.210286 0 0 1 548.571429 749.714286c0-6.162286 0.274286-12.251429 0.822857-18.285715H493.714286a18.285714 18.285714 0 0 1 0-36.571428h62.427428c23.881143-84.425143 101.485714-146.285714 193.572572-146.285714 12.489143 0 24.704 1.133714 36.571428 3.309714zM406.308571 208a18.285714 18.285714 0 1 1 28.525715 22.857143l-73.142857 91.428571a18.285714 18.285714 0 0 1-27.190858 1.499429l-36.571428-36.571429a18.285714 18.285714 0 0 1 25.856-25.856l22.125714 22.125715 60.379429-75.483429z m0 219.428571a18.285714 18.285714 0 1 1 28.525715 22.857143l-73.142857 91.428572a18.285714 18.285714 0 0 1-27.190858 1.499428l-36.571428-36.571428a18.285714 18.285714 0 0 1 25.856-25.856l22.125714 22.125714 60.379429-75.483429z m0.036572 219.373715a18.285714 18.285714 0 0 1 28.452571 22.966857l-74.075428 91.702857a18.285714 18.285714 0 0 1-27.373715 1.225143l-35.638857-36.845714a18.285714 18.285714 0 1 1 26.294857-25.417143l21.248 21.961143 61.092572-75.593143zM493.714286 256h219.428571a18.285714 18.285714 0 0 1 0 36.571429H493.714286a18.285714 18.285714 0 0 1 0-36.571429z m0 219.428571h219.428571a18.285714 18.285714 0 0 1 0 36.571429H493.714286a18.285714 18.285714 0 0 1 0-36.571429z m256 438.857143a164.571429 164.571429 0 1 0 0-329.142857 164.571429 164.571429 0 0 0 0 329.142857z m76.8-248.685714a18.285714 18.285714 0 0 1 29.257143 21.942857l-109.714286 146.285714a18.285714 18.285714 0 0 1-27.556572 1.956572l-54.857142-54.857143a18.285714 18.285714 0 0 1 25.856-25.856l39.954285 39.954286L826.514286 665.6z"
          fill="#FFFFFF"></path>
</svg>