<svg class="icon" viewBox="0 0 1081 1024" version="1.1" xmlns="http://www.w3.org/2000/svg" width="42" height="42">
    <path d="M1079.526761 946.11831v28.123944c0 25.239437-21.633803 46.152113-48.315493 46.152112H54.084507c-26.68169 0-48.315493-20.912676-48.315493-46.152112v-28.123944h442.050704c3.605634 10.095775 13.701408 18.028169 25.960564 18.028169h137.735211c12.259155 0 22.35493-7.211268 25.960563-18.028169h442.050705z"
          fill="#2767F4"></path>
    <path d="M1079.526761 946.11831c0 25.239437-21.633803 46.152113-48.315493 46.152113H54.084507c-26.68169 0-48.315493-20.912676-48.315493-46.152113h442.050704c3.605634 10.095775 13.701408 18.028169 25.960564 18.028169h137.735211c12.259155 0 22.35493-7.211268 25.960563-18.028169h442.050705z"
          fill="#3973F4"></path>
    <path d="M1024.721127 946.11831H61.295775V336.04507c0-19.470423 15.864789-35.335211 35.335211-35.335211h893.476056c19.470423 0 35.335211 15.864789 35.335212 35.335211l-0.721127 610.07324z"
          fill="#4988FD"></path>
    <path d="M784.585915 948.28169H106.005634V351.188732h870.4v597.092958h-91.583099M106.005634 351.188732h870.4"
          fill="#FFFFFF"></path>
    <path d="M827.132394 853.092958H251.673239c-13.701408 0-24.51831-10.816901-24.518309-24.51831v-15.864789c0-13.701408 10.816901-24.51831 24.518309-24.51831h575.459155c13.701408 0 24.51831 10.816901 24.51831 24.51831v15.864789c0 13.701408-10.816901 24.51831-24.51831 24.51831z"
          fill="#FFFFFF"></path>
    <path d="M819.2 788.191549c18.028169 0 32.450704 14.422535 32.450704 32.450705s-14.422535 32.450704-32.450704 32.450704H259.605634c-18.028169 0-32.450704-14.422535-32.450704-32.450704s14.422535-32.450704 32.450704-32.450705h559.594366z m0-28.84507H259.605634c-33.892958 0-61.295775 27.402817-61.295775 61.295775s27.402817 61.295775 61.295775 61.295774h559.594366c33.892958 0 61.295775-27.402817 61.295775-61.295774s-27.402817-61.295775-61.295775-61.295775z"
          fill="#C5DCFA"></path>
    <path d="M450.704225 835.064789H260.326761c-5.769014 0-10.095775-4.326761-10.095775-10.095775v-6.490141c0-5.769014 4.326761-10.095775 10.095775-10.095774h190.377464c5.769014 0 10.095775 4.326761 10.095775 10.095774v6.490141c0 5.769014-4.326761 10.095775-10.095775 10.095775z"
          fill="#3973F4"></path>
    <path d="M798.287324 169.464789c64.180282 0 116.101408 51.921127 116.101408 116.101408 0 28.123944-10.095775 54.084507-26.68169 74.276057-21.633803 25.239437-53.36338 41.825352-89.419718 41.825352H305.03662c-15.143662 0-28.84507-2.884507-41.825352-7.932395-43.267606-16.585915-74.276056-59.132394-74.276057-108.169014 0-54.805634 38.219718-100.957746 88.698592-113.216901V165.859155C277.633803 76.439437 349.746479 4.326761 439.166197 4.326761c57.690141 0 108.169014 30.287324 137.014085 75.718309 23.076056-14.422535 49.757746-23.076056 79.323943-23.076056 69.228169 0 126.91831 48.315493 142.783099 112.495775z"
          fill="#DFECFD"></path>
    <path d="M437.002817 323.064789c33.171831-21.633803 72.833803-34.614085 115.380282-34.614085 116.101408 0 209.847887 93.746479 209.847887 209.847888s-93.746479 209.847887-209.847887 209.847887-209.847887-93.746479-209.847888-209.847887C341.814085 425.464789 379.312676 360.56338 437.002817 323.064789"
          fill="#D4E8FF"></path>
    <path d="M447.098592 293.498592c31.729577-20.912676 69.949296-33.171831 111.053521-33.171831 111.774648 0 202.63662 90.861972 202.636619 202.636619 0 111.774648-90.861972 202.63662-202.636619 202.63662-111.774648 0-202.63662-90.861972-202.63662-202.63662 0-70.670423 36.056338-133.408451 91.583099-169.464788"
          fill="#21D3AC"></path>
    <path d="M571.853521 362.005634l59.853521 59.853521c7.211268 7.211268 7.211268 19.470423 0 26.68169s-19.470423 7.211268-26.68169 0l-27.402817-27.402817v129.802817c0 10.816901-8.653521 18.749296-18.749296 18.749296-10.816901 0-18.749296-8.653521-18.749295-18.749296v-129.802817l-27.402817 27.402817c-7.211268 7.211268-19.470423 7.211268-26.68169 0-3.605634-3.605634-5.769014-8.653521-5.769014-13.701408s2.16338-10.095775 5.769014-13.701409l59.853521-59.853521c3.605634-3.605634 8.653521-5.769014 13.701408-5.769014s8.653521 2.884507 12.259155 6.490141z"
          fill="#FFFFFF"></path>
</svg>